<svg xmlns="http://www.w3.org/2000/svg" viewBox="0 0 636 300"><title>swimlane-csharp-javascript</title><path d="M354.6,207.645a3.328,3.328,0,0,0,2.233.855h138.34a3.324,3.324,0,0,0,3.324-3.314l.385-128.669L447.724,25.5h-90.9a3.324,3.324,0,0,0-3.324,3.324V205.173a3.316,3.316,0,0,0,1.1,2.472" fill="#eaa844"/><path d="M125.6,207.645a3.328,3.328,0,0,0,2.233.855h138.34a3.324,3.324,0,0,0,3.324-3.314l.385-128.669L218.724,25.5h-90.9a3.324,3.324,0,0,0-3.324,3.324V205.173a3.316,3.316,0,0,0,1.1,2.472" fill="#2b9355"/><path d="M134.207,135.585c-19.119,8.216-27.39,24.368-30.41,32.255l9.41,3.4c2.468-6.346,9.327-19.75,24.949-26.463Z" fill="#505050"/><path d="M104.858,179.261h0a5,5,0,0,0,6.438-2.925l2.024-5.394-9.388-3.445-2,5.325A5,5,0,0,0,104.858,179.261Z" fill="#29a55e"/><path d="M505.561,135.585c19.12,8.216,27.391,24.368,30.411,32.255l-9.41,3.4c-2.469-6.346-9.327-19.75-24.949-26.463Z" fill="#505050"/><path d="M534.911,179.261h0a5,5,0,0,1-6.438-2.925l-2.024-5.394,9.388-3.445,2,5.325A5,5,0,0,1,534.911,179.261Z" fill="#eaa844"/><path d="M310.032,147.671l-8.877,6.08a2.2,2.2,0,0,1-2.207.16l-23.73-11.649-4.406,8.976,28.6,14.043a2.893,2.893,0,0,0,2.909-.21l13.353-9.147Z" fill="#605d5a"/><path d="M321.512,145.868h0a5,5,0,0,0-6.95-1.3l-4.753,3.256,5.71,8.209,4.694-3.214A5,5,0,0,0,321.512,145.868Z" fill="#29a55e"/><path d="M333.168,147.671l8.877,6.08a2.2,2.2,0,0,0,2.206.16l23.73-11.649,4.407,8.976-28.6,14.043a2.893,2.893,0,0,1-2.909-.21l-13.353-9.147Z" fill="#605d5a"/><path d="M321.687,145.868h0a5,5,0,0,1,6.95-1.3l4.754,3.256-5.711,8.209-4.693-3.214A5,5,0,0,1,321.687,145.868Z" fill="#eaa844"/><path d="M133.6,214.645a3.328,3.328,0,0,0,2.233.855h138.34a3.324,3.324,0,0,0,3.324-3.314l.385-128.669L226.724,32.5h-90.9a3.324,3.324,0,0,0-3.324,3.324V212.173a3.316,3.316,0,0,0,1.1,2.472" fill="#29a55e"/><path d="M196.224,250.2a5.772,5.772,0,0,1,3.871,1.683,4.588,4.588,0,0,1,1.491,3.092l-.187,5.222a4.442,4.442,0,0,1-4.509,4.307l-15.693-.076a1.359,1.359,0,0,1-1.411-1.057,1.33,1.33,0,0,1,.628-1.645l8.072-4.056a3.983,3.983,0,0,0,1.662-1.086,4.987,4.987,0,0,0,.755-2.8Q191.017,249.823,196.224,250.2Z" fill="#b2b2b2"/><path d="M205.3,176.649c-1.243,41.406-3.112,73.077-3.952,79.625a4.96,4.96,0,0,1-5.282,3.828c-3.284-.028-5.365-1.281-5.347-4.535-1.487-11.223-5.3-43.9-8.649-78.238a10.783,10.783,0,0,1,11-11.826h0C199.037,165.652,205.474,170.677,205.3,176.649Z" fill="#b2b2b2"/><path d="M216.034,250.2a5.771,5.771,0,0,0-3.882,1.656,4.59,4.59,0,0,0-1.512,3.082l.152,5.224a4.442,4.442,0,0,0,4.479,4.337l15.693.03a1.356,1.356,0,0,0,1.418-1.047,1.329,1.329,0,0,0-.617-1.649l-8.044-4.111a3.983,3.983,0,0,1-1.655-1.1,5,5,0,0,1-.735-2.8Q221.244,249.864,216.034,250.2Z" fill="#b2b2b2"/><path d="M206.7,176.827c1.289,41.4,3.194,73.073,4.042,79.62a4.959,4.959,0,0,0,5.286,3.822c3.283-.032,5.364-1.286,5.342-4.541,1.474-11.225,5.251-43.9,8.561-78.248a10.784,10.784,0,0,0-11.012-11.813h0C212.941,165.823,206.509,170.855,206.7,176.827Z" fill="#b2b2b2"/><path d="M141.6,221.645a3.328,3.328,0,0,0,2.233.855h138.34a3.324,3.324,0,0,0,3.324-3.314l.385-128.669L234.724,39.5h-90.9a3.324,3.324,0,0,0-3.324,3.324V219.173a3.316,3.316,0,0,0,1.1,2.472" fill="#40bc77"/><path d="M234.5,39.5V87.087a3.413,3.413,0,0,0,3.413,3.413H285.5v-.186L234.59,39.5h-.09" fill="#88d5aa"/><ellipse cx="247.165" cy="108.171" rx="6.744" ry="3.709" transform="translate(137.624 354.732) rotate(-89.682)" fill="#3a312e"/><ellipse cx="210.413" cy="108.304" rx="6.744" ry="3.709" transform="translate(100.943 318.112) rotate(-89.682)" fill="#3a312e"/><path d="M210.422,187.391q-5.59,2.952-13.922,2.953-10.758,0-17.227-6.926t-6.468-18.176q0-12.093,7.277-19.547t18.457-7.453a29.61,29.61,0,0,1,11.883,2.074v6.293a24.106,24.106,0,0,0-11.953-3.023q-8.683,0-14.08,5.8t-5.4,15.5q0,9.21,5.045,14.677a17.163,17.163,0,0,0,13.236,5.467,24.832,24.832,0,0,0,13.149-3.375Z" fill="#605d5a"/><path d="M255.07,153.219l-.808,3.726h-9.176l-2.215,10.547h9.879l-.949,3.727h-9.668l-3.094,13.957h-4.43l3.024-13.957h-8.789l-2.953,13.957H221.5l2.953-13.957h-9.211l.7-3.727h9.317l2.144-10.547h-9.738l.738-3.726h9.739l2.953-14.133h4.429l-2.953,14.133h8.86l3.023-14.133h4.324l-2.953,14.133Zm-14.343,3.726h-8.86l-2.32,10.547h8.93Z" fill="#605d5a"/><path d="M362.6,214.645a3.328,3.328,0,0,0,2.233.855h138.34a3.324,3.324,0,0,0,3.324-3.314l.385-128.669L455.724,32.5h-90.9a3.324,3.324,0,0,0-3.324,3.324V212.173a3.316,3.316,0,0,0,1.1,2.472" fill="#edc54a"/><path d="M426.224,250.2a5.772,5.772,0,0,1,3.871,1.683,4.588,4.588,0,0,1,1.491,3.092l-.187,5.222a4.442,4.442,0,0,1-4.509,4.307l-15.693-.076a1.359,1.359,0,0,1-1.411-1.057,1.33,1.33,0,0,1,.628-1.645l8.072-4.056a3.983,3.983,0,0,0,1.662-1.086,4.987,4.987,0,0,0,.755-2.8Q421.017,249.823,426.224,250.2Z" fill="#b2b2b2"/><path d="M435.3,176.649c-1.243,41.406-3.112,73.077-3.952,79.625a4.96,4.96,0,0,1-5.282,3.828c-3.284-.028-5.365-1.281-5.347-4.535-1.487-11.223-5.3-43.9-8.649-78.238a10.783,10.783,0,0,1,11-11.826h0C429.037,165.652,435.474,170.677,435.3,176.649Z" fill="#b2b2b2"/><path d="M446.034,250.2a5.771,5.771,0,0,0-3.882,1.656,4.59,4.59,0,0,0-1.512,3.082l.152,5.224a4.442,4.442,0,0,0,4.479,4.337l15.693.03a1.356,1.356,0,0,0,1.418-1.047,1.329,1.329,0,0,0-.617-1.649l-8.044-4.111a3.983,3.983,0,0,1-1.655-1.1,5,5,0,0,1-.735-2.8Q451.244,249.864,446.034,250.2Z" fill="#b2b2b2"/><path d="M436.7,176.827c1.289,41.4,3.194,73.073,4.042,79.62a4.959,4.959,0,0,0,5.286,3.822c3.283-.032,5.364-1.286,5.342-4.541,1.474-11.225,5.251-43.9,8.561-78.248a10.784,10.784,0,0,0-11.012-11.813h0C442.941,165.823,436.509,170.855,436.7,176.827Z" fill="#b2b2b2"/><path d="M371.6,221.645a3.328,3.328,0,0,0,2.233.855h138.34a3.324,3.324,0,0,0,3.324-3.314l.385-128.669L464.724,39.5h-90.9a3.324,3.324,0,0,0-3.324,3.324V219.173a3.316,3.316,0,0,0,1.1,2.472" fill="#f0db4f"/><path d="M464.5,39.5V87.087a3.413,3.413,0,0,0,3.413,3.413H515.5v-.186L464.59,39.5h-.09" fill="#f4f489"/><ellipse cx="442.032" cy="108.171" rx="6.744" ry="3.709" transform="translate(331.409 549.596) rotate(-89.682)" fill="#3a312e"/><ellipse cx="405.28" cy="108.304" rx="6.744" ry="3.709" transform="translate(294.728 512.976) rotate(-89.682)" fill="#3a312e"/><path d="M459.522,189.93q0,8.964-4.429,13.939a15.036,15.036,0,0,1-11.813,4.975,16.738,16.738,0,0,1-5.66-.809V200.16a8.969,8.969,0,0,0,5.168,1.371q8.365,0,8.367-12.937V157.586h8.367Z" fill="#605d5a"/><path d="M469.19,206v-8.613a13.289,13.289,0,0,0,2.76,1.9,21.306,21.306,0,0,0,3.393,1.424,26.668,26.668,0,0,0,3.586.9,19.2,19.2,0,0,0,3.3.316q5.274,0,7.858-1.758a5.785,5.785,0,0,0,2.584-5.1,5.554,5.554,0,0,0-.862-3.111,9.038,9.038,0,0,0-2.408-2.408,25.38,25.38,0,0,0-3.638-2.092q-2.092-1-4.483-2.092-2.567-1.371-4.781-2.777a20.579,20.579,0,0,1-3.85-3.111,12.993,12.993,0,0,1-2.566-3.85,12.538,12.538,0,0,1-.932-5.027,11.6,11.6,0,0,1,1.6-6.17,13.5,13.5,0,0,1,4.219-4.324,19.314,19.314,0,0,1,5.959-2.532,28.332,28.332,0,0,1,6.82-.826q7.91,0,11.531,1.793V166.8q-4.29-3.094-11.039-3.094a19.726,19.726,0,0,0-3.709.352,11.017,11.017,0,0,0-3.305,1.16,7.162,7.162,0,0,0-2.373,2.074,5.08,5.08,0,0,0-.914,3.059,5.784,5.784,0,0,0,.7,2.918,7.544,7.544,0,0,0,2.057,2.25,21.033,21.033,0,0,0,3.305,1.986q1.952.966,4.517,2.092,2.637,1.371,4.975,2.883a23.4,23.4,0,0,1,4.113,3.339,14.713,14.713,0,0,1,2.813,4.061,11.946,11.946,0,0,1,1.037,5.08,11.923,11.923,0,0,1-5.713,10.758,18.574,18.574,0,0,1-6.029,2.39,33.946,33.946,0,0,1-7.207.739,30.7,30.7,0,0,1-3.112-.194q-1.845-.194-3.779-.562a34.542,34.542,0,0,1-3.656-.9A11.578,11.578,0,0,1,469.19,206Z" fill="#605d5a"/></svg>